<?xml version="1.0" encoding="UTF-8"?>
<svg id="Layer_1" data-name="Layer 1" xmlns="http://www.w3.org/2000/svg" xmlns:xlink="http://www.w3.org/1999/xlink" viewBox="0 0 2646.28 998.27">
  <defs>
    <style>
      .cls-1 {
        clip-path: url(#clippath);
      }

      .cls-2 {
        fill: none;
      }

      .cls-2, .cls-3, .cls-4, .cls-5 {
        stroke-width: 0px;
      }

      .cls-3, .cls-6 {
        fill: #0fc9f2;
      }

      .cls-4 {
        fill: #032f40;
      }

      .cls-6 {
        font-family: HelveticaNeue-Light, 'Helvetica Neue';
        font-size: 88.78px;
        font-weight: 300;
        letter-spacing: .01em;
      }

      .cls-5 {
        fill: #032f40;
      }
    </style>
    <clipPath id="clippath">
      <rect class="cls-2" x="39.47" y="69.54" width="2549.88" height="867.63"/>
    </clipPath>
  </defs>
  <g>
    <rect class="cls-4" width="2646.28" height="998.27"/>
    <g class="cls-1">
      <rect class="cls-5" x="39.36" y="69.42" width="2549.97" height="868.5"/>
    </g>
    <path class="cls-3" d="M872.14,522.23c15.39,0,23.09-7.7,23.09-23.1s-7.7-23.1-23.09-23.1H235.54v-201.29h636.61c15.39,0,23.09-7.7,23.09-23.1s-7.7-23.1-23.09-23.1H189.36v541.16h682.79c15.39,0,23.09-7.7,23.09-23.1s-7.7-23.1-23.09-23.1H235.54v-201.29h636.61ZM1505.25,244.23c-29.69-10.45-59.65-15.67-89.88-15.67h-435.4v541.16h435.4c30.24,0,60.2-5.22,89.88-15.67,53.87-18.7,97.45-51.56,130.7-98.58,33.26-47.02,49.89-99.13,49.89-156.33s-16.63-109.3-49.89-156.33-76.83-79.88-130.7-98.58h0ZM1490.4,711.15c-23.09,8.25-48.1,12.38-75.04,12.38h-389.22v-448.77h389.22c26.94,0,51.95,4.12,75.04,12.37,44.53,15.95,80.54,43.45,108.03,82.49,27.49,39.05,41.23,82.22,41.23,129.52s-13.74,90.47-41.23,129.52c-27.49,39.04-63.5,66.54-108.03,82.49h0ZM2128.45,563.48c-15.39,0-23.09,7.7-23.09,23.1s7.7,22.27,23.09,22.27h265.53v28.05c-30.24,33-68.72,58.71-115.45,77.13-46.73,18.42-96.75,27.64-150.08,27.64-88.51,0-164.1-23.24-226.77-69.71-62.67-46.47-94.01-102.43-94.01-167.88s31.34-122.23,94.01-168.7c62.67-46.47,138.26-69.71,226.77-69.71,54.43,0,105.41,9.62,152.97,28.87,47.56,19.25,86.17,45.92,115.86,80.02,4.4,5.5,10.17,8.25,17.32,8.25,15.39,0,23.09-7.7,23.09-23.1,0-5.5-1.92-10.45-5.77-14.85-34.63-39.05-78.61-69.71-131.94-91.98-53.33-22.27-110.5-33.41-171.52-33.41-100.05,0-185.81,27.22-257.28,81.67-73.12,55.55-109.67,123.19-109.67,202.94s36.56,147.39,109.67,202.94c70.92,53.9,156.68,80.84,257.28,80.84s193.51-29.42,265.53-88.27v51.97c0,14.85,7.7,22.27,23.09,22.27s22.26-7.42,22.26-22.27v-188.09h-310.88Z"/>
  </g>
  <text class="cls-6" transform="translate(189.36 882.52) scale(2.1 1)"><tspan x="0" y="0">WEB SOLUTIONS</tspan></text>
</svg>