<?xml version="1.0" encoding="UTF-8"?>
<svg xmlns="http://www.w3.org/2000/svg" version="1.1" viewBox="0 0 2250 559.3">
  <defs>
    <style>
      .cls-1 {
        display: none;
        fill: #032f40;
      }

      .cls-2 {
        fill: #0fc9f2;
      }
    </style>
  </defs>
  <!-- Generator: Adobe Illustrator 28.6.0, SVG Export Plug-In . SVG Version: 1.2.0 Build 709)  -->
  <g>
    <g id="Layer_1">
      <g>
        <rect class="cls-1" x="-189.4" y="-228.6" width="2646.3" height="998.3"/>
        <path class="cls-2" d="M682.8,293.7c15.4,0,23.1-7.7,23.1-23.1s-7.7-23.1-23.1-23.1H46.2V46.2h636.6c15.4,0,23.1-7.7,23.1-23.1s-7.7-23.1-23.1-23.1H0v541.2h682.8c15.4,0,23.1-7.7,23.1-23.1s-7.7-23.1-23.1-23.1H46.2v-201.3h636.6ZM1315.9,15.7c-29.7-10.4-59.6-15.7-89.9-15.7h-435.4v541.2h435.4c30.2,0,60.2-5.2,89.9-15.7,53.9-18.7,97.4-51.6,130.7-98.6,33.3-47,49.9-99.1,49.9-156.3s-16.6-109.3-49.9-156.3-76.8-79.9-130.7-98.6h0ZM1301,482.6c-23.1,8.2-48.1,12.4-75,12.4h-389.2V46.2h389.2c26.9,0,52,4.1,75,12.4,44.5,15.9,80.5,43.4,108,82.5,27.5,39,41.2,82.2,41.2,129.5s-13.7,90.5-41.2,129.5c-27.5,39-63.5,66.5-108,82.5h0ZM1939.1,334.9c-15.4,0-23.1,7.7-23.1,23.1s7.7,22.3,23.1,22.3h265.5v28c-30.2,33-68.7,58.7-115.4,77.1-46.7,18.4-96.8,27.6-150.1,27.6-88.5,0-164.1-23.2-226.8-69.7-62.7-46.5-94-102.4-94-167.9s31.3-122.2,94-168.7c62.7-46.5,138.3-69.7,226.8-69.7s105.4,9.6,153,28.9c47.6,19.2,86.2,45.9,115.9,80,4.4,5.5,10.2,8.2,17.3,8.2,15.4,0,23.1-7.7,23.1-23.1s-1.9-10.4-5.8-14.8c-34.6-39-78.6-69.7-131.9-92-53.3-22.3-110.5-33.4-171.5-33.4-100.1,0-185.8,27.2-257.3,81.7-73.1,55.5-109.7,123.2-109.7,202.9s36.6,147.4,109.7,202.9c70.9,53.9,156.7,80.8,257.3,80.8s193.5-29.4,265.5-88.3v52c0,14.8,7.7,22.3,23.1,22.3s22.3-7.4,22.3-22.3v-188.1h-310.9Z"/>
      </g>
    </g>
  </g>
</svg>